<svg width="375" height="20" viewBox="0 0 375 20" fill="none" xmlns="http://www.w3.org/2000/svg">
<g id="Status Bar / Black">
<path id="Background" fill-rule="evenodd" clip-rule="evenodd" d="M0 0V19.1111H375V0H0Z" fill="black" fill-opacity="0.01"/>
<g id="Charge">
<g id="Battery Icon">
<path id="Shape" fill-rule="evenodd" clip-rule="evenodd" d="M365.998 5.25555H346.502C345.673 5.25555 345 5.89389 345 6.68895V12.8999C345 13.6916 345.673 14.3333 346.502 14.3333H365.998C366.827 14.3333 367.5 13.695 367.5 12.8999V6.68895C367.5 5.89731 366.827 5.25555 365.998 5.25555ZM345.5 6.68895C345.5 6.15929 345.947 5.73334 346.502 5.73334H365.998C366.551 5.73334 367 6.16162 367 6.68895V12.8999C367 13.4296 366.553 13.8556 365.998 13.8556H346.502C345.949 13.8556 345.5 13.4273 345.5 12.8999V6.68895Z" fill="white"/>
<path id="Charge_2" fill-rule="evenodd" clip-rule="evenodd" d="M346.5 6.21112C346.224 6.21112 346 6.43498 346 6.71112V12.8778C346 13.1539 346.224 13.3778 346.5 13.3778H355V6.21112H346.5Z" fill="white"/>
<path id="Shape_2" fill-rule="evenodd" clip-rule="evenodd" d="M369.5 9.79441C369.5 10.6455 368.848 11.3495 368 11.4666V8.12219C368.848 8.23929 369.5 8.94336 369.5 9.79441Z" fill="white"/>
</g>
<path id="58 %" d="M315.207 8.58932L315.641 4.33542H320.012V5.33737H316.561L316.303 7.66354C316.721 7.41745 317.195 7.2944 317.727 7.2944C318.504 7.2944 319.121 7.55222 319.578 8.06784C320.035 8.57956 320.264 9.27292 320.264 10.1479C320.264 11.0268 320.025 11.7202 319.549 12.228C319.076 12.7319 318.414 12.9839 317.562 12.9839C316.809 12.9839 316.193 12.7749 315.717 12.3569C315.24 11.9389 314.969 11.3608 314.902 10.6225H315.928C315.994 11.1108 316.168 11.4799 316.449 11.7299C316.73 11.976 317.102 12.0991 317.562 12.0991C318.066 12.0991 318.461 11.9272 318.746 11.5835C319.035 11.2397 319.18 10.7651 319.18 10.1596C319.18 9.58932 319.023 9.13229 318.711 8.78854C318.402 8.44089 317.99 8.26706 317.475 8.26706C317.002 8.26706 316.631 8.37057 316.361 8.57761L316.074 8.81198L315.207 8.58932ZM326.621 6.56198C326.621 6.98776 326.508 7.36667 326.281 7.6987C326.059 8.03073 325.756 8.2905 325.373 8.478C325.818 8.6694 326.17 8.9487 326.428 9.31589C326.689 9.68307 326.82 10.0991 326.82 10.5639C326.82 11.3022 326.57 11.8901 326.07 12.3276C325.574 12.7651 324.92 12.9839 324.107 12.9839C323.287 12.9839 322.629 12.7651 322.133 12.3276C321.641 11.8862 321.395 11.2983 321.395 10.5639C321.395 10.103 321.52 9.68698 321.77 9.31589C322.023 8.94479 322.373 8.66354 322.818 8.47214C322.439 8.28464 322.141 8.02487 321.922 7.69284C321.703 7.36081 321.594 6.98386 321.594 6.56198C321.594 5.84323 321.824 5.27292 322.285 4.85104C322.746 4.42917 323.354 4.21823 324.107 4.21823C324.857 4.21823 325.463 4.42917 325.924 4.85104C326.389 5.27292 326.621 5.84323 326.621 6.56198ZM325.736 10.5405C325.736 10.0639 325.584 9.67526 325.279 9.37448C324.979 9.0737 324.584 8.92331 324.096 8.92331C323.607 8.92331 323.215 9.07175 322.918 9.36862C322.625 9.6655 322.479 10.0561 322.479 10.5405C322.479 11.0249 322.621 11.4057 322.906 11.6831C323.195 11.9604 323.596 12.0991 324.107 12.0991C324.615 12.0991 325.014 11.9604 325.303 11.6831C325.592 11.4018 325.736 11.021 325.736 10.5405ZM324.107 5.10886C323.682 5.10886 323.336 5.24167 323.07 5.50729C322.809 5.76901 322.678 6.12643 322.678 6.57956C322.678 7.01315 322.807 7.36472 323.064 7.63425C323.326 7.89987 323.674 8.03268 324.107 8.03268C324.541 8.03268 324.887 7.89987 325.145 7.63425C325.406 7.36472 325.537 7.01315 325.537 6.57956C325.537 6.14597 325.402 5.79245 325.133 5.51901C324.863 5.24557 324.521 5.10886 324.107 5.10886ZM331.068 5.97604C331.068 5.46432 331.23 5.04245 331.555 4.71042C331.883 4.37839 332.303 4.21237 332.814 4.21237C333.334 4.21237 333.754 4.38034 334.074 4.71628C334.398 5.04831 334.561 5.47995 334.561 6.0112V6.42722C334.561 6.94284 334.396 7.36472 334.068 7.69284C333.744 8.01706 333.33 8.17917 332.826 8.17917C332.318 8.17917 331.898 8.01706 331.566 7.69284C331.234 7.36472 331.068 6.92917 331.068 6.3862V5.97604ZM331.877 6.42722C331.877 6.7319 331.963 6.98386 332.135 7.18307C332.307 7.37839 332.537 7.47604 332.826 7.47604C333.104 7.47604 333.326 7.38034 333.494 7.18893C333.666 6.99753 333.752 6.73581 333.752 6.40378V5.97604C333.752 5.67136 333.668 5.4194 333.5 5.22018C333.332 5.02097 333.104 4.92136 332.814 4.92136C332.525 4.92136 332.297 5.02097 332.129 5.22018C331.961 5.4194 331.877 5.67917 331.877 5.99948V6.42722ZM335.223 10.7749C335.223 10.2632 335.385 9.84323 335.709 9.51511C336.037 9.18307 336.457 9.01706 336.969 9.01706C337.48 9.01706 337.9 9.18112 338.229 9.50925C338.557 9.83737 338.721 10.2729 338.721 10.8159V11.2319C338.721 11.7436 338.557 12.1655 338.229 12.4975C337.904 12.8257 337.488 12.9897 336.98 12.9897C336.473 12.9897 336.053 12.8276 335.721 12.5034C335.389 12.1753 335.223 11.7397 335.223 11.1967V10.7749ZM336.031 11.2319C336.031 11.5405 336.117 11.7944 336.289 11.9936C336.461 12.1889 336.691 12.2866 336.98 12.2866C337.262 12.2866 337.486 12.1909 337.654 11.9995C337.822 11.8042 337.906 11.5405 337.906 11.2085V10.7749C337.906 10.4663 337.82 10.2143 337.648 10.019C337.48 9.8237 337.254 9.72604 336.969 9.72604C336.691 9.72604 336.465 9.8237 336.289 10.019C336.117 10.2104 336.031 10.4702 336.031 10.7983V11.2319ZM333.072 12.2221L332.457 11.8354L336.623 5.16745L337.238 5.55417L333.072 12.2221Z" fill="white"/>
</g>
<path id="Bluetooth Icon" opacity="0.4" fill-rule="evenodd" clip-rule="evenodd" d="M304.69 14.1916V10.7969L306.503 12.5756L304.69 14.1916ZM306.586 7.49196L304.69 9.21044V5.9547L306.586 7.49196ZM305.145 10.0338L307.959 7.49196L303.761 3.82224H303.661V8.92617L300.811 6.23483L300 6.9984L303.429 10.0338L300 13.0688L300.811 13.8323L303.661 11.141V16.2445H303.843L308 12.5655L305.145 10.0338Z" fill="#FDFDFD"/>
<path id="9:41" d="M168.676 9.29831C168.199 9.80222 167.643 10.0542 167.006 10.0542C166.256 10.0542 165.658 9.79245 165.213 9.26901C164.768 8.74167 164.545 8.05026 164.545 7.19479C164.545 6.63229 164.658 6.12253 164.885 5.6655C165.111 5.20847 165.434 4.853 165.852 4.59909C166.27 4.34518 166.754 4.21823 167.305 4.21823C168.164 4.21823 168.846 4.53854 169.35 5.17917C169.854 5.81979 170.105 6.67722 170.105 7.75143V8.14987C170.105 9.68893 169.758 10.8628 169.062 11.6714C168.367 12.4799 167.33 12.8901 165.951 12.9018H165.781V11.7241H165.986C166.826 11.7124 167.471 11.5112 167.92 11.1206C168.369 10.726 168.621 10.1186 168.676 9.29831ZM167.305 8.94089C167.59 8.94089 167.857 8.85886 168.107 8.69479C168.357 8.53073 168.551 8.30417 168.688 8.01511V7.45847C168.688 6.82956 168.559 6.3237 168.301 5.94089C168.043 5.55807 167.709 5.36667 167.299 5.36667C166.889 5.36667 166.561 5.53659 166.314 5.87643C166.072 6.21237 165.951 6.63815 165.951 7.15378C165.951 7.68893 166.074 8.12057 166.32 8.4487C166.566 8.77682 166.895 8.94089 167.305 8.94089ZM172.408 11.3667C172.674 11.3667 172.879 11.4428 173.023 11.5952C173.168 11.7436 173.24 11.9311 173.24 12.1577C173.24 12.3803 173.168 12.5659 173.023 12.7143C172.879 12.8589 172.674 12.9311 172.408 12.9311C172.154 12.9311 171.953 12.8589 171.805 12.7143C171.656 12.5698 171.582 12.3842 171.582 12.1577C171.582 11.9311 171.654 11.7436 171.799 11.5952C171.943 11.4428 172.146 11.3667 172.408 11.3667ZM172.408 6.39206C172.674 6.39206 172.879 6.46823 173.023 6.62057C173.168 6.76901 173.24 6.95651 173.24 7.18307C173.24 7.40573 173.168 7.59128 173.023 7.73972C172.879 7.88425 172.674 7.95651 172.408 7.95651C172.154 7.95651 171.953 7.88425 171.805 7.73972C171.656 7.59518 171.582 7.40964 171.582 7.18307C171.582 6.95651 171.654 6.76901 171.799 6.62057C171.943 6.46823 172.146 6.39206 172.408 6.39206ZM179.463 9.82565H180.523V10.9682H179.463V12.8667H178.039V10.9682H174.354L174.312 10.101L177.992 4.33542H179.463V9.82565ZM175.807 9.82565H178.039V6.26315L177.934 6.45065L175.807 9.82565ZM185.322 12.8667H183.904V6.01706L181.812 6.7319V5.53073L185.141 4.30612H185.322V12.8667ZM196.279 10.8803H192.975L192.283 12.8667H190.742L193.965 4.33542H195.295L198.523 12.8667H196.977L196.279 10.8803ZM193.391 9.68503H195.863L194.627 6.14597L193.391 9.68503ZM201.418 4.33542L203.879 10.8745L206.334 4.33542H208.25V12.8667H206.773V10.0542L206.92 6.29245L204.4 12.8667H203.34L200.826 6.29831L200.973 10.0542V12.8667H199.496V4.33542H201.418Z" fill="white"/>
<path id="Wifi" fill-rule="evenodd" clip-rule="evenodd" d="M69.9958 7.18662C71.9355 7.18662 73.7034 7.86944 75.0589 8.98909L76 7.9962C74.3946 6.66449 72.2979 5.73334 69.9958 5.73334C67.6971 5.73334 65.6034 6.66167 64 7.98913L64.9391 8.98343C66.2936 7.86708 68.0585 7.18662 69.9958 7.18662ZM69.9958 10.0526C71.1583 10.0526 72.2204 10.456 73.0396 11.1205L74.0352 10.0696C72.9516 9.18087 71.5422 8.60031 69.9958 8.60031C68.4523 8.60031 67.0439 9.17945 65.9613 10.0654L66.9554 11.1176C67.7741 10.4546 68.8347 10.0526 69.9958 10.0526ZM72.0435 12.1713C71.4892 11.7317 70.7755 11.4272 69.9952 11.4272C69.2165 11.4272 68.5038 11.7312 67.9495 12.169L69.9952 14.3333L72.0435 12.1713Z" fill="white"/>
<path id="GS" d="M51.2891 11.7475C51 12.1616 50.5957 12.4721 50.0762 12.6792C49.5605 12.8823 48.959 12.9839 48.2715 12.9839C47.5762 12.9839 46.959 12.8217 46.4199 12.4975C45.8809 12.1694 45.4629 11.7046 45.166 11.103C44.873 10.5014 44.7227 9.80417 44.7148 9.0112V8.26706C44.7148 6.9819 45.0137 5.98581 45.6113 5.27878C46.2129 4.57175 47.0566 4.21823 48.1426 4.21823C49.0332 4.21823 49.75 4.44675 50.293 4.90378C50.8359 5.3569 51.168 6.00143 51.2891 6.83737H50.1641C49.9531 5.70847 49.2812 5.14401 48.1484 5.14401C47.3945 5.14401 46.8223 5.40964 46.4316 5.94089C46.0449 6.46823 45.8496 7.23386 45.8457 8.23776V8.93503C45.8457 9.89206 46.0645 10.6538 46.502 11.2202C46.9395 11.7827 47.5312 12.0639 48.2773 12.0639C48.6992 12.0639 49.0684 12.0171 49.3848 11.9233C49.7012 11.8296 49.9629 11.6714 50.1699 11.4487V9.53268H48.1953V8.61862H51.2891V11.7475ZM55.6836 9.06393C54.7188 8.78659 54.0156 8.44675 53.5742 8.0444C53.1367 7.63815 52.918 7.13815 52.918 6.5444C52.918 5.87253 53.1855 5.31784 53.7207 4.88034C54.2598 4.43893 54.959 4.21823 55.8184 4.21823C56.4043 4.21823 56.9258 4.33151 57.3828 4.55807C57.8438 4.78464 58.1992 5.09714 58.4492 5.49557C58.7031 5.89401 58.8301 6.32956 58.8301 6.80222H57.6992C57.6992 6.28659 57.5352 5.88229 57.207 5.58932C56.8789 5.29245 56.416 5.14401 55.8184 5.14401C55.2637 5.14401 54.8301 5.26706 54.5176 5.51315C54.209 5.75534 54.0547 6.09323 54.0547 6.52682C54.0547 6.87448 54.2012 7.1694 54.4941 7.41159C54.791 7.64987 55.293 7.86862 56 8.06784C56.7109 8.26706 57.2656 8.48776 57.6641 8.72995C58.0664 8.96823 58.3633 9.24753 58.5547 9.56784C58.75 9.88815 58.8477 10.2651 58.8477 10.6987C58.8477 11.3901 58.5781 11.9448 58.0391 12.3628C57.5 12.7768 56.7793 12.9839 55.877 12.9839C55.291 12.9839 54.7441 12.8725 54.2363 12.6499C53.7285 12.4233 53.3359 12.1147 53.0586 11.7241C52.7852 11.3335 52.6484 10.8901 52.6484 10.394H53.7793C53.7793 10.9096 53.9688 11.3178 54.3477 11.6186C54.7305 11.9155 55.2402 12.0639 55.877 12.0639C56.4707 12.0639 56.9258 11.9428 57.2422 11.7007C57.5586 11.4585 57.7168 11.1284 57.7168 10.7104C57.7168 10.2924 57.5703 9.97018 57.2773 9.74362C56.9844 9.51315 56.4531 9.28659 55.6836 9.06393Z" fill="white"/>
<g id="Signal">
<path id="Circle" fill-rule="evenodd" clip-rule="evenodd" d="M35 10.2722C35 11.7235 36.2312 12.9 37.75 12.9C39.2688 12.9 40.5 11.7235 40.5 10.2722C40.5 8.82094 39.2688 7.64444 37.75 7.64444C36.2312 7.64444 35 8.82094 35 10.2722ZM40 10.2722C40 11.4596 38.9926 12.4222 37.75 12.4222C36.5074 12.4222 35.5 11.4596 35.5 10.2722C35.5 9.0848 36.5074 8.12221 37.75 8.12221C38.9926 8.12221 40 9.0848 40 10.2722Z" fill="white"/>
<path id="Circle_2" fill-rule="evenodd" clip-rule="evenodd" d="M28 10.2722C28 11.7235 29.2312 12.9 30.75 12.9C32.2688 12.9 33.5 11.7235 33.5 10.2722C33.5 8.82094 32.2688 7.64444 30.75 7.64444C29.2312 7.64444 28 8.82094 28 10.2722ZM33 10.2722C33 11.4596 31.9926 12.4222 30.75 12.4222C29.5074 12.4222 28.5 11.4596 28.5 10.2722C28.5 9.0848 29.5074 8.12221 30.75 8.12221C31.9926 8.12221 33 9.0848 33 10.2722Z" fill="white"/>
<path id="Oval" fill-rule="evenodd" clip-rule="evenodd" d="M23.75 12.9C25.2688 12.9 26.5 11.7235 26.5 10.2722C26.5 8.82094 25.2688 7.64444 23.75 7.64444C22.2312 7.64444 21 8.82094 21 10.2722C21 11.7235 22.2312 12.9 23.75 12.9Z" fill="white"/>
<path id="Oval_2" fill-rule="evenodd" clip-rule="evenodd" d="M16.75 12.9C18.2688 12.9 19.5 11.7235 19.5 10.2722C19.5 8.82094 18.2688 7.64444 16.75 7.64444C15.2312 7.64444 14 8.82094 14 10.2722C14 11.7235 15.2312 12.9 16.75 12.9Z" fill="white"/>
<path id="Oval_3" fill-rule="evenodd" clip-rule="evenodd" d="M9.75 12.9C11.2688 12.9 12.5 11.7235 12.5 10.2722C12.5 8.82094 11.2688 7.64444 9.75 7.64444C8.23122 7.64444 7 8.82094 7 10.2722C7 11.7235 8.23122 12.9 9.75 12.9Z" fill="white"/>
</g>
</g>
</svg>
